<?xml version="1.0" encoding="utf-8"?>
<!-- Generator: Adobe Illustrator 27.2.0, SVG Export Plug-In . SVG Version: 6.00 Build 0)  -->
<svg version="1.1" id="Layer_1" xmlns="http://www.w3.org/2000/svg" xmlns:xlink="http://www.w3.org/1999/xlink" x="0px" y="0px"
	 viewBox="0 0 500 500" style="enable-background:new 0 0 500 500;" xml:space="preserve">
<style type="text/css">
	.st0{clip-path:url(#SVGID_00000109031391432907938920000010629485152992722067_);fill:#9B51E0;}
	.st1{clip-path:url(#SVGID_00000146494198663933336080000010002014445769193630_);fill:#3088FF;}
	.st2{clip-path:url(#SVGID_00000054239073342013660530000007100952826282029696_);fill:#F8B3B8;}
	.st3{clip-path:url(#SVGID_00000037694831139293967030000008414869865951697024_);fill:#6FCF97;}
	
		.st4{clip-path:url(#SVGID_00000008857425715929292000000000231440898626176394_);fill:url(#SVGID_00000088813152530921302920000010026462747309628843_);}
	
		.st5{clip-path:url(#SVGID_00000132781127873396217040000003488167323039756732_);fill:url(#SVGID_00000124858331124470770820000012363971715842161305_);}
	.st6{clip-path:url(#SVGID_00000068639477840953740790000009409331138410258073_);fill:#62DBE2;}
	.st7{clip-path:url(#SVGID_00000130604767225515425870000007207530100063567292_);fill:#3088FF;}
	.st8{clip-path:url(#SVGID_00000064337726302001540320000011008440178044468892_);fill:#3088FF;}
	.st9{clip-path:url(#SVGID_00000060750595050022548510000011525660857015544241_);fill:#F2C94C;}
</style>
<g>
	<g>
		<defs>
			<path id="SVGID_1_" d="M318.3,429.4h95.8l-0.8-9.9c-1.8-22.9-6.5-45.4-14-67.1C354.8,222.8,224.9,146.5,92.5,139.6l-6.6-0.3v95.6
				l1.6,0.1c93,4.9,189.9,56.3,221.5,148.5c4.8,14.1,7.9,28.7,9.1,43.6L318.3,429.4z"/>
		</defs>
		<clipPath id="SVGID_00000005239323236754272060000011918549746885090987_">
			<use xlink:href="#SVGID_1_"  style="overflow:visible;"/>
		</clipPath>
		
			<rect x="85.9" y="139.2" style="clip-path:url(#SVGID_00000005239323236754272060000011918549746885090987_);fill:#9B51E0;" width="328.1" height="290.2"/>
	</g>
	<g>
		<defs>
			<path id="SVGID_00000155110029934993446980000001497426352714187398_" d="M85.9,265.2c108.5,5.7,195,76,202,164.2h-202V265.2z"/>
		</defs>
		<clipPath id="SVGID_00000016077005729422702450000013098208924517974418_">
			<use xlink:href="#SVGID_00000155110029934993446980000001497426352714187398_"  style="overflow:visible;"/>
		</clipPath>
		
			<rect x="85.9" y="265.2" style="clip-path:url(#SVGID_00000016077005729422702450000013098208924517974418_);fill:#3088FF;" width="202" height="164.2"/>
	</g>
	<g>
		<defs>
			<path id="SVGID_00000098922522562490404700000008303988058682686369_" d="M90.5,270.1v62.4c50.7,4.9,109.3,31.9,126.7,82.5
				c1.1,3.2,2,6.5,2.7,9.9h62.9c-1.2-10.2-3.5-20.3-6.8-30c-12.4-36-38.2-65.5-69.6-86.4C172.1,285.5,131.5,273,90.5,270.1"/>
		</defs>
		<clipPath id="SVGID_00000083806947193233384770000009778756276946490044_">
			<use xlink:href="#SVGID_00000098922522562490404700000008303988058682686369_"  style="overflow:visible;"/>
		</clipPath>
		
			<rect x="90.5" y="270.1" style="clip-path:url(#SVGID_00000083806947193233384770000009778756276946490044_);fill:#F8B3B8;" width="192.3" height="154.7"/>
	</g>
	<g>
		<defs>
			<path id="SVGID_00000106118210309068858520000008563395566727115938_" d="M364.5,424.8h44.6l-0.4-4.9c-1.8-22.5-6.4-44.6-13.7-66
				C351.1,226.2,222.9,151,92.3,144.2l-1.7-0.1v44.7l5.7,0.4c55,3.9,109.1,21.1,155.1,51.7c46.3,30.8,83.1,74.6,101.3,127.5
				c5.2,15.3,8.8,31.1,10.7,47.1L364.5,424.8z"/>
		</defs>
		<clipPath id="SVGID_00000025402018134229370780000004026294325161449917_">
			<use xlink:href="#SVGID_00000106118210309068858520000008563395566727115938_"  style="overflow:visible;"/>
		</clipPath>
		
			<rect x="90.5" y="144.1" style="clip-path:url(#SVGID_00000025402018134229370780000004026294325161449917_);fill:#6FCF97;" width="318.5" height="280.7"/>
	</g>
	<g>
		<defs>
			<path id="SVGID_00000029039645189966746140000013789184777821672879_" d="M241.2,178.3c-45.9-22.8-97.1-36-148.7-38.7l-6.6-0.3
				v95.6l1.6,0.1c10,0.5,20,1.6,29.9,3.2c33.9-5.7,66.6-18,95.3-37.1C222.9,194.3,232.4,186.7,241.2,178.3 M342.4,255
				c-24.2-27.4-53.2-50.3-85.3-68.3c-28,28-64,48.1-102.5,59.8c43.1,12.8,83.3,35.8,113.2,68.3C295.4,298.4,320.7,278.4,342.4,255z"
				/>
		</defs>
		<clipPath id="SVGID_00000054960783403211165490000003877556313442632329_">
			<use xlink:href="#SVGID_00000029039645189966746140000013789184777821672879_"  style="overflow:visible;"/>
		</clipPath>
		
			<linearGradient id="SVGID_00000113342576658460283970000010089996961727275154_" gradientUnits="userSpaceOnUse" x1="232.0816" y1="244.9586" x2="563.1186" y2="576.0164">
			<stop  offset="0" style="stop-color:#4A1877"/>
			<stop  offset="0.4056" style="stop-color:#4C1879"/>
			<stop  offset="0.563" style="stop-color:#531A80"/>
			<stop  offset="0.6773" style="stop-color:#5E1D8C"/>
			<stop  offset="0.7707" style="stop-color:#6F219D"/>
			<stop  offset="0.8514" style="stop-color:#8526B4"/>
			<stop  offset="0.9233" style="stop-color:#A02CCF"/>
			<stop  offset="0.9871" style="stop-color:#C033F0"/>
			<stop  offset="1" style="stop-color:#C735F7"/>
		</linearGradient>
		
			<rect x="85.9" y="139.2" style="clip-path:url(#SVGID_00000054960783403211165490000003877556313442632329_);fill:url(#SVGID_00000113342576658460283970000010089996961727275154_);" width="256.4" height="175.6"/>
	</g>
	<g>
		<defs>
			<path id="SVGID_00000057111673458803148330000016877310828750241680_" d="M85.9,265.2c62.2,3.2,117.1,27.7,154,64.6
				c-45.6,21.9-96.1,34.7-147.1,37.3l-6.9,0.4V265.2z"/>
		</defs>
		<clipPath id="SVGID_00000137811362125064432450000006271600725412234154_">
			<use xlink:href="#SVGID_00000057111673458803148330000016877310828750241680_"  style="overflow:visible;"/>
		</clipPath>
		
			<linearGradient id="SVGID_00000174601174130937493820000005113163494684527268_" gradientUnits="userSpaceOnUse" x1="161.8218" y1="315.2137" x2="492.858" y2="646.2708">
			<stop  offset="0" style="stop-color:#4A1877"/>
			<stop  offset="0.4056" style="stop-color:#4C1879"/>
			<stop  offset="0.563" style="stop-color:#531A80"/>
			<stop  offset="0.6773" style="stop-color:#5E1D8C"/>
			<stop  offset="0.7707" style="stop-color:#6F219D"/>
			<stop  offset="0.8514" style="stop-color:#8526B4"/>
			<stop  offset="0.9233" style="stop-color:#A02CCF"/>
			<stop  offset="0.9871" style="stop-color:#C033F0"/>
			<stop  offset="1" style="stop-color:#C735F7"/>
		</linearGradient>
		
			<rect x="85.9" y="265.2" style="clip-path:url(#SVGID_00000137811362125064432450000006271600725412234154_);fill:url(#SVGID_00000174601174130937493820000005113163494684527268_);" width="154" height="102.3"/>
	</g>
	<g>
		<defs>
			<path id="SVGID_00000062875220261640648300000000059989447458869147_" d="M318.3,70.6h95.8l-0.8,9.9c-1.8,22.9-6.5,45.4-14,67.1
				C354.8,277.2,224.9,353.5,92.5,360.4l-6.6,0.3v-95.6l1.6-0.1c93-4.9,189.9-56.3,221.5-148.5c4.8-14.1,7.9-28.7,9.1-43.6
				L318.3,70.6z"/>
		</defs>
		<clipPath id="SVGID_00000173863401789762354360000011334893155094838695_">
			<use xlink:href="#SVGID_00000062875220261640648300000000059989447458869147_"  style="overflow:visible;"/>
		</clipPath>
		
			<rect x="85.9" y="70.6" style="clip-path:url(#SVGID_00000173863401789762354360000011334893155094838695_);fill:#62DBE2;" width="328.1" height="290.2"/>
	</g>
	<g>
		<defs>
			<path id="SVGID_00000037690218749606248290000000648473966471088293_" d="M85.9,234.8c108.5-5.7,195-76,202-164.2h-202V234.8z"/>
		</defs>
		<clipPath id="SVGID_00000080203597459608963300000017663550813219606412_">
			<use xlink:href="#SVGID_00000037690218749606248290000000648473966471088293_"  style="overflow:visible;"/>
		</clipPath>
		
			<rect x="85.9" y="70.6" style="clip-path:url(#SVGID_00000080203597459608963300000017663550813219606412_);fill:#3088FF;" width="202" height="164.2"/>
	</g>
	<g>
		<defs>
			<path id="SVGID_00000145058555061166779490000005498185092067284654_" d="M322.5,75.2c-1.3,14.6-4.4,29-9.2,42.9
				c-32,93-128.7,145.6-222.8,151.5V316l12.4-1.1c109.6-10,217-73.7,254.1-181.8c3.8-10.9,6.7-22.2,8.7-33.5l4.4-24.3H322.5z"/>
		</defs>
		<clipPath id="SVGID_00000050637180737657078730000004170044899813825174_">
			<use xlink:href="#SVGID_00000145058555061166779490000005498185092067284654_"  style="overflow:visible;"/>
		</clipPath>
		
			<rect x="90.5" y="75.2" style="clip-path:url(#SVGID_00000050637180737657078730000004170044899813825174_);fill:#3088FF;" width="279.7" height="240.8"/>
	</g>
	<g>
		<defs>
			<path id="SVGID_00000077315721207426028400000018066058067778509221_" d="M231.5,75.2H90.5v103.7c55.4-5.1,118.4-34.8,137.4-90.2
				C229.5,84.3,230.7,79.8,231.5,75.2"/>
		</defs>
		<clipPath id="SVGID_00000093884674508006564860000010160796420651420852_">
			<use xlink:href="#SVGID_00000077315721207426028400000018066058067778509221_"  style="overflow:visible;"/>
		</clipPath>
		
			<rect x="90.5" y="75.2" style="clip-path:url(#SVGID_00000093884674508006564860000010160796420651420852_);fill:#F2C94C;" width="140.9" height="103.7"/>
	</g>
</g>
</svg>
